<svg width="263" height="344" viewBox="0 0 263 344" fill="none" xmlns="http://www.w3.org/2000/svg">
<path d="M226.179 76.7235C195.857 50.2273 154.813 76.7235 114.936 132.482C75.0589 188.24 56.0975 164.774 22.1989 189.349C-11.6997 213.924 -20.7664 314.593 98.6654 304.806C218.097 295.019 305.444 145.895 226.179 76.7235Z" fill="#F0F0F0"/>
<path d="M263 343.135C263 343.251 205.503 343.35 134.601 343.35C63.6986 343.35 6.17691 343.251 6.17691 343.135C6.17691 343.019 63.6655 342.92 134.601 342.92C205.536 342.92 263 343.027 263 343.135Z" fill="#263238"/>
<path d="M206.977 241.77C194.184 232.836 191.286 216.251 191.791 201.339C191.874 198.855 191.601 196.222 192.785 194.044C193.969 191.866 196.735 190.368 198.962 191.411C200.808 192.28 201.611 194.433 202.646 196.213C204.028 198.584 206.051 200.516 208.484 201.786C210.065 202.614 212.028 203.111 213.593 202.25C215.746 201.065 215.994 198.11 215.977 195.625C215.977 191.005 215.95 186.39 215.895 181.781C215.746 179.306 215.997 176.823 216.64 174.428C217.41 172.077 219.124 169.899 221.467 169.237C223.81 168.574 226.733 169.941 227.263 172.358C227.354 173.383 227.379 174.411 227.338 175.439C227.404 176.474 227.884 177.608 228.853 177.923C229.822 178.237 230.832 177.517 231.577 176.788C234.127 174.304 235.866 171.067 237.481 167.871C239.095 164.675 240.677 161.387 242.995 158.663C245.314 155.939 248.518 153.778 252.103 153.571C255.689 153.364 259.423 155.566 260.317 159.044C261.211 162.522 259.183 166.074 257.005 168.897C253.719 173.089 249.846 176.784 245.504 179.868C244.657 180.331 243.98 181.054 243.575 181.93C243.037 183.586 244.602 185.242 246.233 185.764C248.079 186.377 250.083 186.186 252.029 186.418C253.975 186.65 256.045 187.494 256.782 189.316C257.792 191.85 255.672 194.499 253.594 196.238C249.421 199.716 244.682 202.452 239.584 204.328C237.762 204.99 235.85 205.578 234.376 206.853C232.902 208.128 232.024 210.356 232.91 212.103C233.796 213.85 236.073 214.405 237.986 214.049C239.899 213.693 241.596 212.666 243.418 211.979C246.821 210.695 251.209 210.927 253.354 213.866C254.018 214.879 254.439 216.032 254.582 217.234C254.726 218.437 254.589 219.656 254.182 220.797C253.353 223.067 252.078 225.147 250.431 226.916C245.008 233.395 237.961 238.319 230.012 241.182C222.121 243.915 214.81 244.66 206.969 241.787" fill="#F37A20"/>
<path d="M256.674 155.616C256.674 155.616 256.599 155.699 256.434 155.848L255.697 156.502C255.051 157.082 254.099 157.926 252.898 159.044C249.494 162.205 246.333 165.618 243.442 169.253C241.596 171.547 239.683 174.147 237.646 176.97C235.609 179.794 233.506 182.841 231.42 186.079C229.195 189.493 227.158 193.025 225.317 196.66C224.357 198.557 223.512 200.536 222.643 202.556L220.076 208.725C216.693 216.495 213.746 224.448 211.249 232.546C209.239 239.173 207.853 245.973 207.109 252.857C206.628 257.504 206.55 262.183 206.878 266.842C207.01 268.498 207.134 269.765 207.25 270.626C207.3 271.04 207.333 271.372 207.366 271.612V271.951C207.33 271.844 207.305 271.733 207.292 271.62C207.25 271.38 207.2 271.057 207.134 270.643C206.985 269.815 206.828 268.507 206.679 266.851C206.279 262.182 206.307 257.487 206.762 252.824C207.459 245.91 208.814 239.078 210.811 232.422C213.286 224.301 216.225 216.328 219.612 208.542L222.245 202.399C223.115 200.387 223.968 198.391 224.936 196.487C226.79 192.84 228.844 189.299 231.088 185.88C233.208 182.568 235.344 179.57 237.356 176.772C239.369 173.973 241.314 171.357 243.153 169.071C246.073 165.445 249.276 162.056 252.733 158.936C253.958 157.835 254.935 157.007 255.597 156.452L256.367 155.831C256.462 155.749 256.565 155.677 256.674 155.616Z" fill="#263238"/>
<path d="M225.044 196.47C224.927 196.129 224.847 195.776 224.804 195.418C224.671 194.731 224.522 193.762 224.348 192.504C223.992 190.02 223.628 186.617 223.239 182.849C222.85 179.082 222.411 175.67 222.047 173.211C221.856 171.986 221.691 171 221.575 170.313C221.484 169.961 221.437 169.6 221.434 169.237C221.576 169.569 221.679 169.916 221.74 170.272C221.922 170.951 222.129 171.928 222.361 173.162C222.833 175.646 223.297 179.024 223.686 182.8C224.075 186.575 224.406 189.887 224.663 192.462C224.787 193.622 224.895 194.607 224.978 195.394C225.042 195.749 225.064 196.11 225.044 196.47Z" fill="#263238"/>
<path d="M256.906 190.525C256.503 190.613 256.093 190.663 255.68 190.674C254.852 190.749 253.677 190.848 252.219 191.013C249.305 191.328 245.297 191.908 240.9 192.736C236.504 193.564 232.554 194.499 229.714 195.22C228.298 195.584 227.155 195.915 226.402 196.139C226 196.282 225.583 196.382 225.16 196.437C225.543 196.244 225.942 196.087 226.352 195.965C227.131 195.692 228.257 195.311 229.664 194.905C232.488 194.077 236.437 193.092 240.851 192.247C244.589 191.532 248.361 191.007 252.153 190.674C253.619 190.55 254.803 190.5 255.631 190.484C256.056 190.455 256.483 190.468 256.906 190.525Z" fill="#263238"/>
<path d="M211.216 231.842C211.128 231.723 211.056 231.592 211.001 231.453L210.455 230.302C209.983 229.3 209.345 227.818 208.583 226.005C207.043 222.362 205.081 217.261 202.994 211.598C200.908 205.934 198.987 200.834 197.529 197.149C196.817 195.36 196.229 193.895 195.791 192.802L195.327 191.618C195.263 191.481 195.218 191.336 195.194 191.187C195.283 191.307 195.355 191.438 195.41 191.576L195.956 192.727C196.42 193.729 197.066 195.211 197.827 197.025C199.368 200.668 201.33 205.769 203.417 211.432C205.503 217.096 207.424 222.196 208.881 225.881C209.593 227.669 210.181 229.135 210.612 230.228C210.802 230.7 210.96 231.056 211.084 231.412C211.148 231.548 211.193 231.693 211.216 231.842Z" fill="#263238"/>
<path d="M253.511 218.205C253.378 218.281 253.236 218.34 253.089 218.379L251.863 218.793L247.334 220.259C243.509 221.501 238.226 223.272 232.43 225.227C226.634 227.181 221.326 228.919 217.476 230.079C215.555 230.667 213.99 231.114 212.905 231.412L211.655 231.735C211.51 231.781 211.36 231.811 211.208 231.826C211.341 231.75 211.483 231.691 211.63 231.652L212.856 231.238L217.385 229.772C221.21 228.53 226.493 226.758 232.289 224.804C238.085 222.85 243.384 221.111 247.235 219.952C249.164 219.364 250.721 218.917 251.814 218.619L253.064 218.296C253.209 218.25 253.359 218.219 253.511 218.205Z" fill="#263238"/>
<path d="M236.255 17.3555L231.991 18.879L230.161 13.3065C226.799 3.03094 216.085 -2.42563 206.24 1.04373C196.395 4.51308 191.154 15.7823 194.516 26.0578L196.345 31.6303L192.065 33.1621C190.432 33.7953 189.107 35.0331 188.363 36.6183C187.62 38.2036 187.516 40.0143 188.074 41.6741L199.939 77.9325C200.185 78.7541 200.594 79.5179 201.141 80.1784C201.689 80.8389 202.363 81.3826 203.125 81.7773C203.886 82.172 204.72 82.4096 205.575 82.4759C206.43 82.5423 207.29 82.4361 208.103 82.1636L252.294 66.3569C253.948 65.7249 255.292 64.4761 256.044 62.8732C256.796 61.2703 256.897 59.4382 256.326 57.7622L244.453 21.5038C244.2 20.6844 243.785 19.9244 243.232 19.269C242.679 18.6136 242 18.0763 241.235 17.6891C240.47 17.302 239.635 17.0729 238.779 17.0156C237.924 16.9582 237.065 17.0738 236.255 17.3555ZM202.572 23.1515C201.666 20.4797 201.828 17.5608 203.026 15.0063C204.224 12.4518 206.364 10.4599 208.997 9.448C210.298 9.00306 211.675 8.82463 213.046 8.92337C214.416 9.0221 215.753 9.39598 216.977 10.0227C218.2 10.6494 219.285 11.5161 220.166 12.5711C221.047 13.6261 221.706 14.8477 222.105 16.1631L223.926 21.7356L204.394 28.724L202.572 23.1515ZM227.412 55.3279L230.443 64.585C230.498 64.7706 230.48 64.9706 230.393 65.1432C230.305 65.3159 230.154 65.4481 229.971 65.5124L225.723 67.0276C225.554 67.0745 225.373 67.0541 225.219 66.9708C225.065 66.8874 224.949 66.7476 224.895 66.5805L221.84 57.3648C220.155 57.273 218.539 56.6687 217.207 55.6329C215.875 54.597 214.891 53.179 214.388 51.5687C213.668 49.4399 213.799 47.115 214.754 45.0808C215.71 43.0466 217.415 41.4608 219.513 40.6556C220.549 40.3017 221.646 40.1599 222.737 40.2388C223.829 40.3176 224.894 40.6155 225.869 41.1146C226.843 41.6138 227.707 42.304 228.409 43.1441C229.111 43.9842 229.636 44.957 229.954 46.0045C230.487 47.6403 230.531 49.3959 230.081 51.0564C229.631 52.7168 228.706 54.2099 227.421 55.3527L227.412 55.3279Z" fill="#F37A20"/>
<path d="M231.801 18.7796C231.801 18.8955 223.893 21.8681 214.057 25.4037C204.22 28.9393 196.196 31.7793 196.155 31.6965C196.114 31.6137 204.062 28.6163 213.907 25.0725C223.752 21.5286 231.759 18.672 231.801 18.7796Z" fill="#263238"/>
<path d="M241.19 20.3031C241.227 20.375 241.257 20.4497 241.281 20.5267C241.348 20.6923 241.422 20.9075 241.522 21.1725C241.737 21.777 242.035 22.6132 242.407 23.6565L245.587 32.9137C246.912 36.8384 248.493 41.4918 250.249 46.6586C251.077 49.2502 252.054 51.9495 252.965 54.7896C253.452 56.2531 253.663 57.7947 253.586 59.3354C253.515 60.1366 253.287 60.9161 252.915 61.6289C252.517 62.3394 251.986 62.9664 251.35 63.4754C250.071 64.4092 248.651 65.1331 247.144 65.6199L242.879 67.1518L234.806 70.0415L221.136 74.9102L211.904 78.156L209.42 78.984L208.757 79.1993C208.686 79.2308 208.611 79.2503 208.534 79.2572C208.534 79.2572 208.6 79.2572 208.741 79.1579L209.387 78.9012L211.871 77.9655L221.053 74.5873L234.699 69.6192L242.755 66.7046L247.019 65.1645C248.484 64.6975 249.862 63.9956 251.102 63.0862C251.693 62.6139 252.188 62.032 252.559 61.3723C252.91 60.713 253.121 59.9887 253.18 59.2443C253.256 57.7598 253.054 56.2742 252.584 54.8641C251.689 52.0489 250.746 49.3248 249.893 46.7331C248.17 41.5581 246.581 36.8881 245.322 32.9633C244.063 29.0386 243.004 25.8839 242.275 23.6648C241.927 22.5801 241.662 21.7356 241.447 21.1228L241.248 20.4604C241.223 20.4102 241.204 20.3575 241.19 20.3031Z" fill="#263238"/>
<path d="M217.874 8.88488C217.874 8.88488 217.435 8.6696 216.623 8.3384C215.467 7.89398 214.243 7.64765 213.005 7.60975C211.169 7.5468 209.342 7.89181 207.656 8.61992C205.605 9.52656 203.852 10.993 202.597 12.851C201.333 14.7037 200.656 16.8932 200.651 19.1356C200.668 20.9736 200.947 22.7997 201.479 24.5591C201.91 26.066 202.357 27.2667 202.655 28.1029C202.831 28.5277 202.975 28.965 203.085 29.4112C202.85 29.014 202.653 28.5954 202.497 28.1609C202.158 27.3329 201.67 26.1571 201.189 24.6419C200.6 22.864 200.279 21.0082 200.237 19.1356C200.215 16.8084 200.909 14.5307 202.224 12.6109C203.523 10.6851 205.348 9.17323 207.482 8.2556C209.221 7.5235 211.105 7.20056 212.988 7.31167C214.254 7.37615 215.497 7.67077 216.656 8.18107C216.966 8.32412 217.265 8.49019 217.551 8.67788C217.668 8.72962 217.777 8.79947 217.874 8.88488Z" fill="#263238"/>
<path d="M218.255 41.2849C218.387 41.2048 218.525 41.1356 218.669 41.0779C219.083 40.8909 219.512 40.7385 219.952 40.6225C220.65 40.4165 221.37 40.2942 222.096 40.2582C223.085 40.205 224.074 40.3544 225.003 40.697C227.122 41.4422 229.068 43.6033 230.029 46.4931C230.489 48.0438 230.489 49.695 230.029 51.2458C229.518 52.929 228.603 54.4613 227.363 55.7088L227.412 55.4852C228.514 58.5074 229.714 61.7864 230.956 65.206L231.031 65.413L230.824 65.4875L228.928 66.1168L224.788 67.4996L224.58 67.5658L224.514 67.3588C223.38 63.9309 222.138 60.7348 221.202 57.5966L221.384 57.7374C219.766 57.6029 218.222 56.9954 216.946 55.9903C215.792 55.1011 214.845 53.9709 214.172 52.6783C213.565 51.532 213.263 50.2489 213.295 48.9522C213.333 47.627 213.664 46.3266 214.264 45.1442C214.864 43.9618 215.717 42.9266 216.764 42.1129C217.195 41.7631 217.678 41.4837 218.197 41.2849C217.729 41.5624 217.276 41.8636 216.839 42.1874C215.689 43.1602 214.808 44.4118 214.28 45.8224C213.827 46.8861 213.615 48.0369 213.66 49.1921C213.704 50.3474 214.003 51.4786 214.537 52.5044C215.198 53.7479 216.122 54.8328 217.244 55.6839C218.462 56.6393 219.933 57.2152 221.475 57.34H221.616L221.658 57.4642C222.568 60.5443 223.819 63.7653 224.97 67.2098L224.696 67.0773L228.836 65.6945L230.724 65.057L230.592 65.3385C229.358 61.9188 228.166 58.6316 227.073 55.6094V55.4852L227.172 55.3859C228.376 54.1901 229.273 52.7216 229.789 51.1051C230.228 49.6216 230.228 48.0427 229.789 46.5593C228.886 43.7772 227.023 41.6658 225.003 40.9206C224.109 40.5757 223.154 40.4152 222.196 40.4486C221.481 40.465 220.77 40.5622 220.076 40.7384C218.842 41.0448 218.263 41.3263 218.255 41.2849Z" fill="#263238"/>
<path d="M192.661 280.364L109.951 279.983C105.175 279.957 100.604 278.036 97.2429 274.642C93.8817 271.248 92.005 266.659 92.0248 261.883L92.9025 54.5413C92.9123 52.1748 93.3883 49.8336 94.3034 47.6513C95.2185 45.4689 96.5548 43.4884 98.2358 41.8228C99.9168 40.1572 101.91 38.8392 104.1 37.9441C106.291 37.0491 108.636 36.5946 111.003 36.6066L193.704 36.9875C198.481 37.0116 203.052 38.9305 206.415 42.3227C209.778 45.7149 211.656 50.303 211.639 55.0795L210.761 262.413C210.751 264.78 210.275 267.122 209.36 269.305C208.446 271.488 207.11 273.47 205.429 275.137C203.748 276.804 201.755 278.123 199.565 279.02C197.374 279.917 195.028 280.374 192.661 280.364Z" fill="#455A64"/>
<path d="M193.58 44.1168H177.55C177.027 44.1265 176.511 44.2391 176.031 44.4483C175.552 44.6574 175.118 44.959 174.755 45.3358C174.392 45.7125 174.107 46.1571 173.916 46.6441C173.725 47.1311 173.632 47.651 173.641 48.174V51.0803C173.651 51.603 173.558 52.1224 173.367 52.6089C173.176 53.0954 172.89 53.5395 172.527 53.9156C172.164 54.2917 171.731 54.5925 171.251 54.8007C170.772 55.009 170.256 55.1206 169.733 55.1293L138.484 54.9885C137.427 54.9603 136.424 54.5137 135.696 53.7468C134.968 52.9799 134.574 51.9553 134.601 50.8981V47.9918C134.628 46.9361 134.235 45.9127 133.508 45.146C132.782 44.3794 131.782 43.9318 130.726 43.9015H125.087L111.052 43.8352C107.714 43.8154 104.504 45.1191 102.125 47.4609C99.746 49.8027 98.3919 52.9918 98.3591 56.3299L97.531 258.711C97.5234 260.368 97.842 262.009 98.4687 263.542C99.0954 265.075 100.018 266.469 101.184 267.645C102.349 268.822 103.735 269.757 105.262 270.398C106.789 271.039 108.428 271.372 110.084 271.38L192.619 271.761C194.277 271.768 195.919 271.45 197.453 270.823C198.987 270.195 200.382 269.272 201.559 268.106C202.736 266.939 203.672 265.553 204.314 264.025C204.955 262.497 205.289 260.857 205.296 259.2L206.124 56.8184C206.144 53.4709 204.834 50.2525 202.482 47.8707C200.129 45.4889 196.927 44.1387 193.58 44.1168Z" fill="white"/>
<path d="M182.476 244.759L121.104 244.494C120.467 244.494 119.953 243.799 119.962 242.954L120.028 226.899C120.028 226.071 120.55 225.359 121.187 225.359L182.559 225.641C182.912 225.702 183.228 225.897 183.441 226.185C183.654 226.474 183.748 226.834 183.702 227.189L183.644 243.228C183.644 244.08 183.114 244.768 182.476 244.759Z" fill="#F37A20"/>
<path d="M140.26 238.178C139.837 238.178 139.431 238.111 139.041 237.975C138.656 237.84 138.358 237.661 138.146 237.438L138.382 236.975C138.588 237.181 138.862 237.349 139.203 237.479C139.545 237.604 139.897 237.666 140.26 237.666C140.77 237.666 141.152 237.574 141.407 237.39C141.662 237.2 141.789 236.956 141.789 236.658C141.789 236.43 141.718 236.249 141.578 236.113C141.442 235.977 141.274 235.875 141.073 235.804C140.873 235.728 140.594 235.647 140.236 235.56C139.808 235.452 139.466 235.349 139.211 235.251C138.957 235.148 138.737 234.994 138.553 234.788C138.374 234.582 138.284 234.302 138.284 233.95C138.284 233.663 138.36 233.403 138.512 233.169C138.664 232.931 138.897 232.741 139.211 232.6C139.526 232.459 139.916 232.389 140.382 232.389C140.708 232.389 141.025 232.435 141.334 232.527C141.648 232.614 141.919 232.736 142.147 232.893L141.943 233.373C141.705 233.216 141.45 233.099 141.179 233.023C140.908 232.942 140.642 232.901 140.382 232.901C139.884 232.901 139.507 232.999 139.252 233.194C139.003 233.384 138.878 233.63 138.878 233.934C138.878 234.162 138.946 234.346 139.081 234.487C139.222 234.622 139.396 234.728 139.602 234.804C139.813 234.874 140.095 234.953 140.447 235.04C140.865 235.143 141.201 235.246 141.456 235.349C141.716 235.446 141.935 235.598 142.114 235.804C142.293 236.005 142.383 236.278 142.383 236.625C142.383 236.913 142.304 237.176 142.147 237.414C141.995 237.647 141.759 237.834 141.439 237.975C141.119 238.111 140.726 238.178 140.26 238.178ZM143.694 232.438H144.295V238.13H143.694V232.438ZM150.904 232.438V238.13H150.408L146.749 233.511V238.13H146.147V232.438H146.643L150.31 237.056V232.438H150.904ZM156.771 235.284H157.348V237.455C157.082 237.688 156.768 237.867 156.405 237.991C156.042 238.116 155.659 238.178 155.258 238.178C154.689 238.178 154.177 238.054 153.721 237.804C153.266 237.555 152.908 237.211 152.648 236.772C152.388 236.327 152.258 235.831 152.258 235.284C152.258 234.736 152.388 234.243 152.648 233.804C152.908 233.359 153.266 233.012 153.721 232.763C154.177 232.514 154.692 232.389 155.266 232.389C155.7 232.389 156.098 232.459 156.462 232.6C156.825 232.736 157.131 232.939 157.38 233.21L157.006 233.592C156.556 233.148 155.985 232.926 155.291 232.926C154.83 232.926 154.413 233.029 154.038 233.235C153.67 233.435 153.38 233.717 153.168 234.08C152.957 234.438 152.851 234.839 152.851 235.284C152.851 235.728 152.957 236.129 153.168 236.487C153.38 236.845 153.67 237.127 154.038 237.333C154.407 237.539 154.822 237.642 155.283 237.642C155.868 237.642 156.364 237.495 156.771 237.203V235.284ZM163.472 238.178C162.735 238.178 162.16 237.967 161.748 237.544C161.336 237.121 161.13 236.506 161.13 235.698V232.438H161.732V235.674C161.732 236.335 161.881 236.829 162.179 237.154C162.477 237.479 162.908 237.642 163.472 237.642C164.041 237.642 164.475 237.479 164.773 237.154C165.071 236.829 165.22 236.335 165.22 235.674V232.438H165.806V235.698C165.806 236.506 165.6 237.121 165.188 237.544C164.781 237.967 164.209 238.178 163.472 238.178ZM169.749 232.438C170.476 232.438 171.045 232.611 171.457 232.958C171.869 233.305 172.075 233.782 172.075 234.389C172.075 234.996 171.869 235.473 171.457 235.82C171.045 236.162 170.476 236.333 169.749 236.333H168.221V238.13H167.619V232.438H169.749ZM169.733 235.804C170.297 235.804 170.728 235.682 171.026 235.438C171.324 235.189 171.473 234.839 171.473 234.389C171.473 233.928 171.324 233.576 171.026 233.332C170.728 233.083 170.297 232.958 169.733 232.958H168.221V235.804H169.733Z" fill="#E8E8E3"/>
<path d="M133.346 103.609L112.05 103.513L112.032 107.421L133.328 107.517L133.346 103.609Z" fill="#F37A20"/>
<path opacity="0.1" d="M133.346 103.609L112.05 103.513L112.032 107.421L133.328 107.517L133.346 103.609Z" fill="black"/>
<path d="M195.774 127.605C195.941 127.588 196.106 127.549 196.263 127.489C196.492 127.399 196.691 127.247 196.838 127.049C196.984 126.851 197.072 126.616 197.091 126.371C197.091 125.054 197.091 123.133 197.091 120.666C197.091 119.432 197.091 118.049 197.091 116.526C197.091 116.153 197.091 115.764 197.091 115.375C197.145 114.997 197.062 114.613 196.859 114.29C196.745 114.136 196.597 114.01 196.426 113.922C196.255 113.834 196.066 113.787 195.874 113.785H194.582H182.617L113.363 113.529C113.185 113.526 113.01 113.565 112.851 113.645C112.693 113.724 112.556 113.84 112.452 113.984C112.252 114.308 112.175 114.693 112.237 115.069C112.237 115.897 112.237 116.725 112.237 117.553C112.237 119.209 112.237 120.865 112.237 122.521C112.237 123.349 112.237 124.177 112.237 125.005C112.202 125.39 112.202 125.778 112.237 126.164C112.28 126.329 112.361 126.482 112.473 126.612C112.585 126.741 112.725 126.843 112.882 126.909C113.046 126.974 113.22 127.005 113.396 127H117.61L136 127.1L167.133 127.29L188.123 127.456L193.828 127.522H195.31C195.65 127.522 195.816 127.522 195.816 127.522H195.31H193.828H188.123H167.133L136 127.423L117.61 127.348H113.396C113.164 127.357 112.932 127.318 112.717 127.232C112.499 127.139 112.305 126.997 112.15 126.818C111.995 126.639 111.883 126.426 111.823 126.197C111.775 125.98 111.758 125.757 111.773 125.535V124.922C111.773 124.094 111.773 123.266 111.773 122.438C111.773 120.782 111.773 119.126 111.773 117.47C111.773 116.642 111.773 115.814 111.773 114.986C111.757 114.765 111.757 114.544 111.773 114.323C111.804 114.08 111.898 113.849 112.046 113.653C112.189 113.453 112.378 113.291 112.597 113.18C112.816 113.068 113.059 113.012 113.305 113.015L182.559 113.396L194.524 113.479H195.816C196.043 113.479 196.267 113.534 196.469 113.639C196.671 113.745 196.844 113.897 196.975 114.083C197.208 114.443 197.302 114.876 197.24 115.3C197.24 115.69 197.24 116.079 197.24 116.451C197.24 117.958 197.24 119.341 197.24 120.591C197.24 123.075 197.182 124.98 197.165 126.305C197.145 126.559 197.052 126.803 196.898 127.007C196.744 127.211 196.535 127.367 196.296 127.456C196.139 127.553 195.959 127.604 195.774 127.605Z" fill="#E0E0E0"/>
<path d="M157.396 117.685H118.447V121.337H157.396V117.685Z" fill="#F37A20"/>
<path opacity="0.2" d="M157.396 117.685H118.447V121.337H157.396V117.685Z" fill="white"/>
<path d="M133.201 139.262L111.904 139.166L111.887 143.074L133.183 143.17L133.201 139.262Z" fill="#F37A20"/>
<path opacity="0.1" d="M133.201 139.262L111.904 139.166L111.887 143.074L133.183 143.17L133.201 139.262Z" fill="black"/>
<path d="M195.236 163.259C195.403 163.238 195.569 163.208 195.733 163.168C195.964 163.094 196.177 162.972 196.357 162.809C196.537 162.646 196.68 162.446 196.776 162.224C196.906 161.889 196.957 161.529 196.925 161.172C196.925 160.775 196.925 160.344 196.925 159.864C196.925 158.903 196.925 157.81 196.925 156.552V151.294C196.965 150.913 196.88 150.53 196.685 150.201C196.481 149.864 196.159 149.613 195.782 149.497C195.37 149.424 194.95 149.401 194.532 149.431H182.617L113.603 149.174C113.231 149.175 112.873 149.311 112.594 149.556C112.316 149.801 112.136 150.139 112.087 150.507C112.087 151.294 112.087 152.163 112.087 152.991C112.087 154.647 112.087 156.303 112.087 157.959C112.087 158.787 112.087 159.615 112.087 160.443C112.057 160.83 112.073 161.22 112.137 161.603C112.24 161.938 112.453 162.23 112.742 162.431C113.047 162.625 113.407 162.717 113.768 162.696H114.919H117.312L135.636 162.787L166.661 162.977L187.577 163.143L193.265 163.209H194.747H195.244H194.747H193.265H187.577H166.661L135.619 163.176L117.296 163.11H113.694C113.246 163.136 112.801 163.017 112.427 162.77C112.05 162.509 111.775 162.126 111.649 161.685C111.574 161.265 111.552 160.836 111.582 160.41C111.582 159.582 111.582 158.754 111.582 157.926C111.582 156.27 111.582 154.614 111.582 152.958C111.582 152.13 111.582 151.302 111.582 150.474C111.643 150.001 111.874 149.566 112.232 149.25C112.59 148.935 113.051 148.76 113.528 148.76L182.543 149.141L194.458 149.232C194.901 149.205 195.347 149.236 195.782 149.323C196.213 149.464 196.575 149.759 196.801 150.151C197.015 150.516 197.108 150.939 197.066 151.36C197.066 151.749 197.066 152.13 197.066 152.511C197.066 154.01 197.066 155.384 197.066 156.651C197.066 157.918 197.066 158.986 197.066 159.963C197.066 160.435 197.066 160.874 197.066 161.28C197.096 161.65 197.036 162.022 196.892 162.364C196.784 162.593 196.629 162.795 196.436 162.958C196.243 163.121 196.017 163.241 195.774 163.308C195.593 163.323 195.411 163.306 195.236 163.259Z" fill="#E0E0E0"/>
<path d="M133.04 176.464L111.744 176.367L111.726 180.275L133.022 180.372L133.04 176.464Z" fill="#F37A20"/>
<path opacity="0.1" d="M133.04 176.464L111.744 176.367L111.726 180.275L133.022 180.372L133.04 176.464Z" fill="black"/>
<path d="M195.07 200.445C195.238 200.425 195.404 200.394 195.567 200.353C195.797 200.28 196.009 200.159 196.189 199.998C196.369 199.836 196.513 199.639 196.61 199.418C196.74 199.083 196.791 198.724 196.759 198.366C196.759 197.961 196.759 197.538 196.759 197.05C196.759 196.098 196.759 194.996 196.759 193.738V188.48C196.799 188.099 196.715 187.716 196.519 187.387C196.31 187.056 195.99 186.809 195.617 186.691C195.205 186.615 194.785 186.59 194.367 186.617H182.451L113.437 186.36C113.066 186.361 112.708 186.497 112.429 186.742C112.15 186.987 111.97 187.325 111.922 187.693C111.922 188.521 111.922 189.349 111.922 190.177C111.922 191.833 111.922 193.489 111.922 195.145C111.922 195.973 111.922 196.801 111.922 197.629C111.891 198.014 111.908 198.4 111.971 198.78C112.071 199.118 112.284 199.411 112.576 199.608C112.88 199.807 113.241 199.9 113.603 199.873H117.204L135.528 199.973L166.554 200.163L187.469 200.329L193.158 200.395H194.64C194.971 200.395 195.137 200.395 195.137 200.395C195.137 200.395 194.971 200.395 194.64 200.395H193.158H187.469H166.554L135.528 200.304L117.204 200.229H113.603C113.154 200.26 112.709 200.14 112.336 199.89C111.959 199.629 111.684 199.246 111.557 198.805C111.483 198.384 111.461 197.956 111.491 197.53C111.491 196.702 111.491 195.874 111.491 195.046C111.491 193.39 111.491 191.734 111.491 190.078C111.491 189.25 111.491 188.422 111.491 187.552C111.55 187.08 111.779 186.645 112.136 186.329C112.493 186.013 112.952 185.839 113.429 185.839L182.443 186.219L194.358 186.31C194.802 186.283 195.247 186.314 195.683 186.402C196.113 186.542 196.476 186.837 196.701 187.23C196.916 187.594 197.008 188.018 196.966 188.438C196.966 188.828 196.966 189.217 196.966 189.589C196.966 191.088 196.966 192.463 196.966 193.729C196.966 194.996 196.966 196.064 196.966 197.041C196.966 197.513 196.966 197.952 196.966 198.358C196.998 198.728 196.939 199.101 196.793 199.443C196.685 199.671 196.53 199.874 196.337 200.037C196.144 200.2 195.918 200.319 195.675 200.387C195.481 200.453 195.274 200.473 195.07 200.445Z" fill="#E0E0E0"/>
<path d="M156.565 154.372L117.615 154.195L117.599 157.846L156.548 158.023L156.565 154.372Z" fill="#F37A20"/>
<path opacity="0.2" d="M156.565 154.372L117.615 154.195L117.599 157.846L156.548 158.023L156.565 154.372Z" fill="white"/>
<path d="M121.137 193.688C121.113 194.021 120.991 194.34 120.788 194.604C120.584 194.869 120.307 195.068 119.991 195.176C119.675 195.285 119.334 195.298 119.011 195.215C118.688 195.132 118.396 194.955 118.172 194.708C117.948 194.46 117.801 194.152 117.75 193.822C117.7 193.492 117.747 193.154 117.887 192.851C118.026 192.547 118.252 192.292 118.535 192.115C118.819 191.939 119.148 191.849 119.481 191.858C119.943 191.884 120.375 192.09 120.685 192.433C120.995 192.775 121.158 193.226 121.137 193.688Z" fill="#F37A20"/>
<path d="M126.412 193.713C126.428 193.946 126.396 194.181 126.318 194.401C126.24 194.622 126.117 194.824 125.958 194.995C125.798 195.166 125.605 195.303 125.39 195.396C125.176 195.489 124.944 195.537 124.71 195.537C124.476 195.537 124.245 195.489 124.03 195.396C123.816 195.303 123.623 195.166 123.463 194.995C123.303 194.824 123.181 194.622 123.103 194.401C123.024 194.181 122.993 193.946 123.009 193.713C122.993 193.479 123.024 193.245 123.103 193.025C123.181 192.804 123.303 192.602 123.463 192.431C123.623 192.26 123.816 192.123 124.03 192.03C124.245 191.937 124.476 191.888 124.71 191.888C124.944 191.888 125.176 191.937 125.39 192.03C125.605 192.123 125.798 192.26 125.958 192.431C126.117 192.602 126.24 192.804 126.318 193.025C126.396 193.245 126.428 193.479 126.412 193.713Z" fill="#F37A20"/>
<path d="M131.695 193.738C131.67 194.071 131.548 194.389 131.345 194.654C131.141 194.918 130.864 195.117 130.548 195.226C130.232 195.335 129.892 195.348 129.568 195.265C129.245 195.181 128.953 195.005 128.729 194.757C128.505 194.51 128.358 194.202 128.308 193.872C128.257 193.542 128.304 193.204 128.444 192.901C128.583 192.597 128.809 192.341 129.092 192.165C129.376 191.988 129.705 191.899 130.039 191.908C130.499 191.936 130.93 192.143 131.24 192.485C131.55 192.827 131.713 193.277 131.695 193.738Z" fill="#F37A20"/>
<path d="M136.969 193.763C136.945 194.096 136.823 194.414 136.619 194.679C136.415 194.943 136.138 195.142 135.822 195.251C135.507 195.359 135.166 195.373 134.843 195.29C134.519 195.206 134.227 195.03 134.003 194.782C133.779 194.535 133.633 194.227 133.582 193.897C133.531 193.567 133.579 193.229 133.718 192.925C133.858 192.622 134.083 192.366 134.367 192.19C134.65 192.013 134.979 191.924 135.313 191.933C135.774 191.96 136.205 192.168 136.514 192.51C136.824 192.852 136.987 193.302 136.969 193.763Z" fill="#F37A20"/>
<path d="M142.243 193.779C142.221 194.113 142.1 194.432 141.897 194.698C141.694 194.964 141.418 195.164 141.102 195.274C140.786 195.384 140.445 195.398 140.121 195.316C139.797 195.233 139.505 195.057 139.28 194.81C139.055 194.563 138.908 194.255 138.856 193.924C138.805 193.594 138.852 193.256 138.991 192.952C139.131 192.648 139.356 192.392 139.64 192.215C139.924 192.038 140.253 191.949 140.587 191.958C141.047 191.985 141.477 192.191 141.786 192.532C142.095 192.872 142.259 193.32 142.243 193.779Z" fill="#F37A20"/>
<path d="M147.526 193.804C147.504 194.136 147.384 194.454 147.183 194.719C146.982 194.984 146.708 195.184 146.395 195.295C146.081 195.407 145.742 195.424 145.419 195.345C145.096 195.266 144.803 195.094 144.576 194.851C144.35 194.607 144.199 194.303 144.143 193.975C144.087 193.647 144.128 193.31 144.261 193.006C144.394 192.701 144.614 192.441 144.892 192.26C145.171 192.078 145.496 191.981 145.829 191.982C146.295 192 146.736 192.201 147.054 192.542C147.372 192.884 147.542 193.337 147.526 193.804Z" fill="#F37A20"/>
<path d="M152.801 193.829C152.817 194.062 152.785 194.296 152.707 194.517C152.629 194.738 152.506 194.94 152.346 195.111C152.187 195.282 151.994 195.418 151.779 195.512C151.564 195.605 151.333 195.653 151.099 195.653C150.865 195.653 150.633 195.605 150.419 195.512C150.204 195.418 150.011 195.282 149.852 195.111C149.692 194.94 149.569 194.738 149.491 194.517C149.413 194.296 149.381 194.062 149.397 193.829C149.381 193.595 149.413 193.361 149.491 193.14C149.569 192.92 149.692 192.718 149.852 192.547C150.011 192.375 150.204 192.239 150.419 192.146C150.633 192.052 150.865 192.004 151.099 192.004C151.333 192.004 151.564 192.052 151.779 192.146C151.994 192.239 152.187 192.375 152.346 192.547C152.506 192.718 152.629 192.92 152.707 193.14C152.785 193.361 152.817 193.595 152.801 193.829Z" fill="#F37A20"/>
<path d="M158.075 193.854C158.052 194.185 157.933 194.503 157.732 194.768C157.531 195.033 157.257 195.234 156.944 195.345C156.63 195.456 156.291 195.474 155.968 195.395C155.645 195.316 155.352 195.144 155.125 194.9C154.899 194.657 154.748 194.353 154.692 194.025C154.636 193.697 154.677 193.36 154.81 193.055C154.943 192.75 155.162 192.491 155.441 192.309C155.719 192.128 156.045 192.031 156.378 192.032C156.844 192.049 157.284 192.251 157.603 192.592C157.921 192.934 158.091 193.387 158.075 193.854Z" fill="#F37A20"/>
<path d="M163.349 193.878C163.327 194.212 163.206 194.531 163.003 194.797C162.8 195.063 162.524 195.263 162.208 195.373C161.892 195.483 161.551 195.497 161.227 195.415C160.903 195.333 160.61 195.157 160.386 194.909C160.161 194.662 160.013 194.354 159.962 194.023C159.911 193.693 159.958 193.355 160.097 193.051C160.237 192.747 160.462 192.491 160.746 192.314C161.03 192.137 161.359 192.048 161.693 192.057C162.152 192.085 162.582 192.291 162.892 192.631C163.201 192.971 163.365 193.419 163.349 193.878Z" fill="#F37A20"/>
<g opacity="0.2">
<path opacity="0.2" d="M121.137 193.688C121.113 194.021 120.991 194.34 120.788 194.604C120.584 194.869 120.307 195.068 119.991 195.176C119.675 195.285 119.334 195.298 119.011 195.215C118.688 195.132 118.396 194.955 118.172 194.708C117.948 194.46 117.801 194.152 117.75 193.822C117.7 193.492 117.747 193.154 117.887 192.851C118.026 192.547 118.252 192.292 118.535 192.115C118.819 191.939 119.148 191.849 119.481 191.858C119.943 191.884 120.375 192.09 120.685 192.433C120.995 192.775 121.158 193.226 121.137 193.688Z" fill="white"/>
<path opacity="0.2" d="M126.412 193.713C126.428 193.946 126.396 194.18 126.318 194.401C126.24 194.622 126.117 194.824 125.958 194.995C125.798 195.166 125.605 195.302 125.39 195.396C125.176 195.489 124.944 195.537 124.71 195.537C124.476 195.537 124.245 195.489 124.03 195.396C123.816 195.302 123.623 195.166 123.463 194.995C123.303 194.824 123.181 194.622 123.103 194.401C123.024 194.18 122.993 193.946 123.009 193.713C122.993 193.479 123.024 193.245 123.103 193.024C123.181 192.804 123.303 192.602 123.463 192.431C123.623 192.26 123.816 192.123 124.03 192.03C124.245 191.936 124.476 191.888 124.71 191.888C124.944 191.888 125.176 191.936 125.39 192.03C125.605 192.123 125.798 192.26 125.958 192.431C126.117 192.602 126.24 192.804 126.318 193.024C126.396 193.245 126.428 193.479 126.412 193.713Z" fill="white"/>
<path opacity="0.2" d="M131.695 193.738C131.67 194.071 131.548 194.389 131.345 194.654C131.141 194.918 130.864 195.117 130.548 195.226C130.232 195.334 129.891 195.348 129.568 195.265C129.245 195.181 128.953 195.005 128.729 194.757C128.505 194.51 128.358 194.202 128.308 193.872C128.257 193.542 128.304 193.204 128.444 192.9C128.583 192.597 128.809 192.341 129.092 192.165C129.376 191.988 129.705 191.899 130.039 191.908C130.499 191.936 130.93 192.143 131.24 192.485C131.55 192.827 131.713 193.277 131.695 193.738Z" fill="white"/>
<path opacity="0.2" d="M136.969 193.762C136.945 194.096 136.823 194.414 136.619 194.679C136.415 194.943 136.138 195.142 135.822 195.251C135.507 195.359 135.166 195.373 134.842 195.289C134.519 195.206 134.227 195.03 134.003 194.782C133.779 194.535 133.633 194.227 133.582 193.897C133.531 193.566 133.579 193.229 133.718 192.925C133.858 192.622 134.083 192.366 134.367 192.19C134.65 192.013 134.979 191.924 135.313 191.933C135.774 191.96 136.205 192.167 136.514 192.51C136.824 192.852 136.987 193.301 136.969 193.762Z" fill="white"/>
<path opacity="0.2" d="M142.243 193.779C142.221 194.112 142.1 194.432 141.897 194.698C141.694 194.963 141.418 195.164 141.102 195.273C140.786 195.383 140.445 195.398 140.121 195.315C139.797 195.233 139.504 195.057 139.28 194.81C139.055 194.562 138.907 194.254 138.856 193.924C138.805 193.594 138.852 193.255 138.991 192.951C139.13 192.648 139.356 192.391 139.64 192.215C139.924 192.038 140.253 191.948 140.587 191.957C141.046 191.985 141.476 192.191 141.786 192.531C142.095 192.872 142.259 193.319 142.243 193.779Z" fill="white"/>
<path opacity="0.2" d="M147.526 193.804C147.504 194.136 147.384 194.454 147.183 194.719C146.982 194.984 146.708 195.184 146.395 195.295C146.081 195.407 145.742 195.424 145.419 195.345C145.096 195.266 144.803 195.094 144.576 194.851C144.35 194.607 144.199 194.303 144.143 193.975C144.087 193.647 144.128 193.31 144.261 193.005C144.394 192.701 144.613 192.441 144.892 192.259C145.171 192.078 145.496 191.981 145.829 191.982C146.295 191.999 146.736 192.201 147.054 192.542C147.372 192.884 147.542 193.337 147.526 193.804Z" fill="white"/>
<path opacity="0.2" d="M152.8 193.829C152.817 194.062 152.785 194.296 152.707 194.517C152.629 194.737 152.506 194.94 152.346 195.111C152.187 195.282 151.994 195.418 151.779 195.512C151.564 195.605 151.333 195.653 151.099 195.653C150.865 195.653 150.633 195.605 150.419 195.512C150.204 195.418 150.011 195.282 149.852 195.111C149.692 194.94 149.569 194.737 149.491 194.517C149.413 194.296 149.381 194.062 149.397 193.829C149.381 193.595 149.413 193.361 149.491 193.14C149.569 192.92 149.692 192.718 149.852 192.546C150.011 192.375 150.204 192.239 150.419 192.146C150.633 192.052 150.865 192.004 151.099 192.004C151.333 192.004 151.564 192.052 151.779 192.146C151.994 192.239 152.187 192.375 152.346 192.546C152.506 192.718 152.629 192.92 152.707 193.14C152.785 193.361 152.817 193.595 152.8 193.829Z" fill="white"/>
<path opacity="0.2" d="M158.075 193.853C158.052 194.185 157.933 194.503 157.732 194.768C157.531 195.033 157.257 195.234 156.944 195.345C156.63 195.456 156.291 195.473 155.968 195.394C155.645 195.315 155.352 195.144 155.125 194.9C154.898 194.657 154.748 194.353 154.692 194.025C154.636 193.697 154.677 193.36 154.81 193.055C154.943 192.75 155.162 192.491 155.441 192.309C155.719 192.127 156.045 192.031 156.377 192.032C156.844 192.049 157.284 192.25 157.603 192.592C157.921 192.933 158.091 193.387 158.075 193.853Z" fill="white"/>
<path opacity="0.2" d="M163.349 193.878C163.326 194.212 163.206 194.531 163.003 194.797C162.8 195.063 162.524 195.263 162.208 195.373C161.892 195.483 161.551 195.497 161.227 195.415C160.903 195.332 160.61 195.157 160.385 194.909C160.161 194.662 160.013 194.354 159.962 194.023C159.911 193.693 159.958 193.355 160.097 193.051C160.236 192.747 160.462 192.491 160.746 192.314C161.03 192.137 161.359 192.048 161.693 192.057C162.152 192.084 162.582 192.29 162.892 192.631C163.201 192.971 163.365 193.419 163.349 193.878Z" fill="white"/>
</g>
<path d="M155.856 74.3474C156.431 74.0941 156.919 73.6773 157.259 73.1487C157.599 72.6202 157.776 72.0033 157.769 71.3749C157.79 70.9663 157.728 70.5577 157.586 70.1739C157.445 69.7901 157.227 69.4391 156.945 69.1424C156.663 68.8456 156.324 68.6093 155.949 68.4478C155.573 68.2863 155.168 68.203 154.759 68.203C154.35 68.203 153.945 68.2863 153.569 68.4478C153.193 68.6093 152.854 68.8456 152.572 69.1424C152.291 69.4391 152.073 69.7901 151.931 70.1739C151.79 70.5577 151.728 70.9663 151.749 71.3749C151.736 72.0096 151.912 72.6339 152.254 73.1688C152.596 73.7037 153.089 74.1254 153.67 74.3805C149.033 75.0761 149.24 80.1103 149.24 80.1103L160.203 80.16C160.203 80.16 160.46 75.0347 155.856 74.3474Z" fill="#F37A20"/>
<path opacity="0.1" d="M155.856 74.3474C156.431 74.0941 156.919 73.6773 157.259 73.1487C157.599 72.6202 157.776 72.0033 157.769 71.3749C157.79 70.9663 157.728 70.5577 157.586 70.1739C157.445 69.7901 157.227 69.4391 156.945 69.1424C156.663 68.8456 156.324 68.6093 155.949 68.4478C155.573 68.2863 155.168 68.203 154.759 68.203C154.35 68.203 153.945 68.2863 153.569 68.4478C153.193 68.6093 152.854 68.8456 152.572 69.1424C152.291 69.4391 152.073 69.7901 151.931 70.1739C151.79 70.5577 151.728 70.9663 151.749 71.3749C151.736 72.0096 151.912 72.6339 152.254 73.1688C152.596 73.7037 153.089 74.1254 153.67 74.3805C149.033 75.0761 149.24 80.1103 149.24 80.1103L160.203 80.16C160.203 80.16 160.46 75.0347 155.856 74.3474Z" fill="black"/>
<path d="M173.67 83.4069L134.597 83.2296L134.576 87.8995L173.649 88.0768L173.67 83.4069Z" fill="#F37A20"/>
<path opacity="0.2" d="M173.67 83.4069L134.597 83.2296L134.576 87.8995L173.649 88.0768L173.67 83.4069Z" fill="white"/>
<path d="M30.0236 107.608H29.6344L28.5083 107.691C27.8989 107.728 27.2929 107.808 26.695 107.931C26.3077 107.986 25.9235 108.06 25.5441 108.155L24.2606 108.511C22.0762 109.181 20.0152 110.202 18.1582 111.533C15.7047 113.314 13.656 115.594 12.1469 118.223C11.2599 119.739 10.554 121.354 10.0438 123.034C9.50761 124.86 9.19892 126.746 9.12467 128.648C9.07532 129.647 9.09192 130.648 9.17435 131.645C9.17435 132.15 9.31511 132.656 9.38135 133.169C9.43707 133.686 9.53397 134.199 9.67115 134.701C10.4157 138.023 11.9265 141.126 14.0829 143.761C16.2393 146.396 18.9817 148.491 22.0913 149.878C24.3419 150.849 26.7541 151.391 29.2038 151.476C31.734 151.615 34.2667 151.252 36.6559 150.408L37.3846 150.135H37.4839L37.5667 150.184L48.0079 155.484L47.7015 155.749C46.5837 152.288 45.5073 148.934 44.464 145.713V145.589L44.5551 145.498C47.088 142.947 48.9683 139.822 50.0365 136.39C51.0041 133.252 51.2864 129.942 50.8645 126.686C50.4892 123.791 49.5586 120.997 48.1238 118.455C46.887 116.272 45.2915 114.313 43.4042 112.659C41.8471 111.35 40.1237 110.253 38.2788 109.397C36.8829 108.795 35.4291 108.337 33.94 108.031L32.284 107.757L31.0834 107.666L30.3548 107.617H30.1064C30.1889 107.607 30.2722 107.607 30.3548 107.617H31.0917L32.2923 107.666L33.9483 107.906C35.4559 108.19 36.9295 108.632 38.3451 109.223C40.2216 110.069 41.9761 111.164 43.5615 112.477C45.4835 114.123 47.1129 116.083 48.3805 118.273C49.8561 120.842 50.8152 123.674 51.204 126.611C51.6609 129.918 51.3983 133.285 50.434 136.481C49.3587 139.985 47.4494 143.176 44.8697 145.779L44.9194 145.564C45.9627 148.785 47.0474 152.139 48.1735 155.591L48.3308 156.096L47.8588 155.856L37.4177 150.565H37.5998L36.8546 150.839C34.4194 151.695 31.8399 152.067 29.2618 151.932C26.7593 151.836 24.2966 151.275 22.0002 150.276C17.6198 148.399 13.9753 145.139 11.6252 140.994C10.5438 139.079 9.75402 137.014 9.28199 134.866C9.15273 134.351 9.05594 133.829 8.99219 133.301C8.92595 132.78 8.81831 132.266 8.79347 131.753C8.56937 128.807 8.88076 125.844 9.71255 123.009C10.2355 121.306 10.9611 119.671 11.8737 118.141C13.4188 115.487 15.5102 113.193 18.0092 111.409C19.8967 110.074 21.9924 109.061 24.211 108.411L25.5109 108.08C25.8935 107.991 26.2805 107.922 26.6701 107.873C27.2743 107.761 27.886 107.695 28.5 107.675L29.6344 107.633C29.7634 107.616 29.8934 107.607 30.0236 107.608Z" fill="#F37A20"/>
<path d="M34.7432 126.917H33.2114L29.8994 122.264V119.209C29.8994 119.209 27.5313 119.06 27.8128 123.059C28.0943 127.058 27.8128 126.04 27.8128 126.04C27.8128 126.04 22.7868 126.04 22.3728 126.495C21.9588 126.951 21.9339 131.803 21.876 134.51C21.8443 135.163 22.0315 135.808 22.4081 136.342C22.7846 136.876 23.3289 137.269 23.9543 137.458C24.1296 137.507 24.3106 137.532 24.4925 137.533C25.7511 137.533 32.1516 136.514 32.1516 136.514H34.7929L34.7432 126.917Z" fill="#F37A20"/>
<path d="M39.1234 126.098L38.1795 136.564H35.563V126.313L39.1234 126.098Z" fill="#F37A20"/>
<path d="M70.3309 339.169V332.089L57.6376 331.998L57.5299 342.704L58.3165 342.762C61.819 342.986 76.1353 343.317 78.4868 342.588C81.1033 341.777 70.3309 339.169 70.3309 339.169Z" fill="#F37A20"/>
<path d="M78.7849 341.926C78.7849 342.042 74.0322 342.141 68.1782 342.141C62.3241 342.141 57.5714 342.042 57.5714 341.926C57.5714 341.81 62.3241 341.711 68.1782 341.711C74.0322 341.711 78.7849 341.81 78.7849 341.926Z" fill="#263238"/>
<path d="M70.5545 340.618C70.4469 340.56 70.5545 340.187 70.8112 339.79C71.0679 339.393 71.4156 339.227 71.4984 339.31C71.5812 339.393 71.4073 339.707 71.1589 340.047C70.9105 340.386 70.6621 340.676 70.5545 340.618Z" fill="#263238"/>
<path d="M71.366 341.082C71.25 341.082 71.308 340.618 71.5564 340.179C71.8048 339.74 72.136 339.475 72.2271 339.541C72.3182 339.608 72.1691 339.98 71.9373 340.369C71.7054 340.759 71.4736 341.123 71.366 341.082Z" fill="#263238"/>
<path d="M61.3968 341.893C61.3471 341.893 61.1567 341.744 60.8834 341.429C60.5499 341.025 60.1783 340.653 59.7739 340.32C59.3762 340.002 58.9024 339.794 58.3994 339.715C58.0102 339.666 57.7618 339.715 57.737 339.666C57.7121 339.616 57.9523 339.442 58.4077 339.409C59.0087 339.396 59.595 339.596 60.0637 339.972C60.5028 340.33 60.8732 340.765 61.1567 341.255C61.3471 341.62 61.4465 341.86 61.3968 341.893Z" fill="#263238"/>
<path d="M70.5959 339.285C70.6539 339.384 70.4386 339.633 70.0742 339.765C69.7099 339.898 69.387 339.848 69.3704 339.765C69.3539 339.682 69.6106 339.508 69.9252 339.392C70.2399 339.276 70.5297 339.185 70.5959 339.285Z" fill="#263238"/>
<path d="M70.3972 338.597C70.3972 338.722 70.066 338.821 69.6354 338.829C69.2049 338.838 68.8654 338.738 68.8737 338.622C68.8819 338.506 69.2214 338.399 69.6354 338.39C70.0494 338.382 70.3806 338.482 70.3972 338.597Z" fill="#263238"/>
<path d="M101.588 339.169V332.089L88.8949 331.998L88.7872 342.597L89.5738 342.655C93.0763 342.878 107.401 343.317 109.744 342.588C112.361 341.777 101.588 339.169 101.588 339.169Z" fill="#F37A20"/>
<path d="M110.042 341.943C110.042 342.059 105.298 342.158 99.4354 342.158C93.5731 342.158 88.8369 342.059 88.8369 341.943C88.8369 341.827 93.5814 341.727 99.4354 341.727C105.289 341.727 110.042 341.827 110.042 341.943Z" fill="#263238"/>
<path d="M101.812 340.618C101.712 340.56 101.812 340.187 102.068 339.79C102.325 339.393 102.673 339.227 102.756 339.31C102.839 339.393 102.665 339.707 102.416 340.047C102.168 340.386 101.919 340.676 101.812 340.618Z" fill="#263238"/>
<path d="M102.623 341.082C102.516 341.082 102.565 340.618 102.822 340.179C103.079 339.74 103.402 339.475 103.493 339.541C103.584 339.608 103.426 339.98 103.195 340.369C102.963 340.759 102.739 341.123 102.623 341.082Z" fill="#263238"/>
<path d="M92.654 341.893C92.6044 341.893 92.4222 341.744 92.1407 341.429C91.8071 341.025 91.4356 340.653 91.0311 340.32C90.6334 340.002 90.1596 339.794 89.6567 339.715C89.2758 339.666 89.0191 339.715 88.9942 339.666C88.9694 339.616 89.2095 339.442 89.6649 339.409C90.2659 339.396 90.8522 339.596 91.3209 339.972C91.7624 340.328 92.1331 340.763 92.4139 341.255C92.6044 341.62 92.7037 341.86 92.654 341.893Z" fill="#263238"/>
<path d="M101.853 339.285C101.911 339.384 101.696 339.633 101.332 339.765C100.967 339.898 100.644 339.848 100.628 339.765C100.611 339.682 100.868 339.508 101.182 339.392C101.497 339.276 101.787 339.185 101.853 339.285Z" fill="#263238"/>
<path d="M101.671 338.597C101.671 338.722 101.34 338.821 100.909 338.829C100.479 338.838 100.148 338.738 100.156 338.622C100.164 338.506 100.495 338.399 100.909 338.39C101.323 338.382 101.671 338.482 101.671 338.597Z" fill="#263238"/>
<path d="M148.354 128.938C148.023 128.598 147.203 128.764 147.203 128.764C147.285 128.287 147.285 127.8 147.203 127.323C147.054 126.859 146.011 126.95 146.011 126.95C145.963 126.56 145.963 126.165 146.011 125.775C146.019 125.688 146.001 125.601 145.958 125.526C145.915 125.45 145.849 125.39 145.771 125.352C145.277 125.151 144.747 125.055 144.214 125.071C143.576 124.616 146.16 120.997 147.12 119.838C148.081 118.679 147.907 117.776 147.054 117.776C146.466 117.776 143.452 121.254 142.525 122.421C141.598 123.589 139.138 126.835 139.056 124.243C138.973 121.651 137.929 119.697 137.275 119.366C136.621 119.035 135.926 119.813 136.282 120.533C136.595 121.352 136.79 122.21 136.861 123.084C136.951 123.779 136.92 124.485 136.77 125.17C136.496 126.445 136.122 127.696 135.652 128.913H135.586C135.586 128.913 117.519 146.243 116.211 147.477C115.043 148.586 91.561 146.16 86.8497 145.663C85.2487 145.429 83.6321 145.318 82.0141 145.332C79.9689 145.423 79.6046 145.713 77.5677 145.738C72.4237 145.795 67.2916 146.246 62.2165 147.088C59.9184 147.478 57.7719 148.493 56.0109 150.02C54.25 151.547 52.9424 153.529 52.2307 155.749C47.4862 170.57 36.7387 205.653 34.8425 225.359C33.4097 227.958 32.1162 230.63 30.9675 233.366C29.6344 236.993 29.9573 237.117 30.4044 237.2C31.6133 237.423 32.9878 230.915 33.5012 232.488C34.0145 234.062 30.8929 240.247 32.1598 240.429C33.8158 240.661 35.1323 233.805 35.2897 233.258C35.447 232.712 36.2667 232.886 36.1177 233.399C35.8775 234.128 33.5508 241.853 35.1737 242.101C36.068 242.234 36.1673 240.603 36.1673 240.603C36.1673 240.603 37.8234 233.209 38.5769 233.358C39.3303 233.507 38.5272 237.87 38.1463 239.328C37.7654 240.785 38.2953 241.522 39.0736 241.166C39.6036 240.917 40.8704 236.488 41.2182 235.047C41.566 233.606 42.4354 229.615 43.6028 231.925C44.7703 234.235 46.5423 235.577 47.2709 235.61C47.4351 235.591 47.5899 235.523 47.7153 235.416C47.8407 235.308 47.9311 235.165 47.9747 235.006C48.0184 234.847 48.0133 234.678 47.9602 234.521C47.9071 234.365 47.8083 234.228 47.6766 234.128C47.0499 233.516 46.512 232.819 46.0786 232.058C45.6923 231.465 45.4122 230.809 45.2506 230.12C44.9169 228.747 44.7227 227.343 44.671 225.931L44.5385 225.102C46.3932 215.92 51.7339 188.968 59.4426 171.754L62.6056 178.262L63.9801 183.081L55.551 203.889L91.5031 203.417L86.1376 182.766L92.654 161.238C99.7004 161.396 117.792 161.661 120.806 160.294C124.599 158.638 144.214 133.864 144.214 133.864C145.493 132.871 146.717 131.809 147.882 130.685C147.882 130.685 149.074 129.683 148.354 128.938Z" fill="#FFBE9D"/>
<path d="M53.9696 188.513C55.0129 184.952 60.3701 167.349 60.3701 167.349C60.3701 167.349 63.0031 181.698 62.3076 183.429C61.6678 184.91 60.912 186.339 60.0471 187.701C53.9696 196.95 54.7645 201.579 54.7645 201.579L91.4866 200.461C91.5694 195.327 88.5306 183.387 87.9013 181.483C87.272 179.579 89.3669 173.344 89.3669 173.344C89.3669 173.344 93.5069 169.129 93.3579 166.96C93.2792 165.011 93.0383 163.072 92.6375 161.164L114.994 161.992L114.29 146.839L82.1798 143.627C81.062 146.781 70.952 145.233 70.952 145.233C60.0389 145.597 59.3599 147.601 54.8224 151.128C50.2849 154.656 42.7749 184.928 42.7749 184.928L53.9696 188.513Z" fill="#F37A20"/>
<path d="M75.6798 184.928C75.0435 185.041 74.3953 185.075 73.7506 185.027C72.55 185.027 70.9022 184.944 69.0889 184.762C67.2756 184.58 65.6361 184.323 64.4686 184.091C63.8249 184.008 63.1937 183.847 62.5891 183.611C63.2364 183.611 63.8823 183.672 64.5183 183.793C65.6941 183.942 67.3252 184.149 69.1303 184.331C70.9354 184.514 72.5748 184.638 73.7589 184.721C74.4043 184.729 75.0475 184.798 75.6798 184.928Z" fill="#263238"/>
<path d="M78.197 181.806C77.5604 182.118 76.8872 182.349 76.1932 182.493C72.8898 183.361 69.4816 183.765 66.0667 183.694C65.3601 183.717 64.6534 183.65 63.9636 183.495C64.661 183.407 65.3639 183.371 66.0667 183.388C67.3667 183.346 69.1552 183.255 71.1258 183.023C73.0965 182.791 74.8519 182.46 76.0939 182.195C76.7837 182.011 77.4869 181.881 78.197 181.806Z" fill="#263238"/>
<path d="M90.5509 167.879C90.5342 168.51 90.4481 169.138 90.2942 169.75C90.079 170.901 89.7478 172.474 89.3255 174.197C88.9032 175.919 88.4975 177.509 88.1331 178.585C87.9867 179.201 87.77 179.798 87.4873 180.365C87.5334 179.736 87.6501 179.114 87.8351 178.511C88.1497 177.219 88.5058 175.728 88.9032 174.097C89.3006 172.466 89.6815 170.976 89.9962 169.684C90.1082 169.062 90.2945 168.456 90.5509 167.879Z" fill="#263238"/>
<path d="M54.3587 186.402C52.4431 186.106 50.5526 185.666 48.7034 185.085C46.8138 184.643 44.9595 184.062 43.1557 183.346C45.0704 183.647 46.9605 184.087 48.811 184.663C50.7011 185.103 52.5555 185.684 54.3587 186.402Z" fill="#263238"/>
<path d="M93.0349 160.982C92.7226 161.035 92.4033 161.035 92.091 160.982C91.2261 160.893 90.3769 160.69 89.5656 160.377C88.2111 159.868 86.978 159.081 85.9456 158.068C84.9132 157.054 84.1043 155.835 83.5708 154.49C82.9812 153.01 82.7294 151.418 82.8339 149.828C82.8708 148.517 83.2629 147.241 83.9683 146.135C84.4644 145.391 85.2055 144.843 86.0631 144.587C86.2923 144.524 86.5292 144.493 86.7669 144.496C86.9325 144.496 87.0153 144.496 87.0153 144.496C87.0153 144.496 86.6676 144.496 86.1128 144.72C85.326 145.01 84.6587 145.555 84.2167 146.268C83.0906 148.04 82.7759 151.277 83.9765 154.3C84.5353 155.725 85.4101 157.004 86.5351 158.042C87.4568 158.891 88.5185 159.575 89.6732 160.063C90.7569 160.491 91.8842 160.799 93.0349 160.982Z" fill="#263238"/>
<path d="M112.336 161.694C112.129 159.155 112.062 156.606 112.137 154.06C112.072 151.515 112.15 148.969 112.369 146.434C112.576 148.97 112.642 151.516 112.568 154.06C112.637 156.607 112.56 159.156 112.336 161.694Z" fill="#263238"/>
<path d="M81.9644 144.554C82.0555 142.708 82.2459 140.621 82.2459 140.621C82.2459 140.621 86.8166 140.116 87.0898 135.396C87.363 130.677 87.0898 119.788 87.0898 119.788L78.8097 115.549L69.6188 122.777L71.0347 146.376L79.4638 146.914C80.1081 146.932 80.7332 146.693 81.202 146.251C81.6708 145.808 81.9449 145.198 81.9644 144.554Z" fill="#FFBE9D"/>
<path d="M82.7841 131.662C82.7841 131.662 82.7841 131.753 82.7096 131.861C82.648 131.939 82.5683 132.001 82.4774 132.041C82.3865 132.081 82.2872 132.099 82.188 132.092C81.658 132.092 81.1447 131.48 80.9625 130.768C80.8759 130.422 80.8759 130.061 80.9625 129.716C80.9795 129.565 81.0338 129.421 81.1206 129.297C81.2074 129.173 81.3238 129.072 81.4593 129.004C81.5707 128.958 81.6957 128.958 81.8071 129.004C81.8896 129.045 81.9565 129.112 81.9975 129.194C82.0555 129.335 81.9975 129.426 81.9975 129.418C81.9975 129.41 81.9975 129.335 81.9147 129.252C81.8714 129.193 81.8078 129.152 81.736 129.136C81.6642 129.121 81.5892 129.133 81.5256 129.17C81.424 129.231 81.3396 129.317 81.2802 129.42C81.2209 129.523 81.1885 129.639 81.1861 129.757C81.1164 130.065 81.1164 130.385 81.1861 130.693C81.3517 131.339 81.7988 131.861 82.1962 131.91C82.274 131.921 82.3531 131.915 82.4286 131.894C82.5041 131.872 82.5744 131.836 82.6351 131.786C82.7344 131.72 82.7676 131.654 82.7841 131.662Z" fill="#EB996E"/>
<path d="M89.9299 117.238C89.2923 115.069 86.9822 113.992 84.879 113.396C81.6746 112.485 78.2136 112.088 75.0837 113.239C71.9538 114.39 68.1947 116.41 68.1947 119.863C66.3482 119.714 65.2884 121.328 64.5597 123.332C64.0939 124.553 63.8147 125.837 63.7317 127.141C63.4999 131.662 62.233 137.905 59.3019 141.217C57.6459 143.064 55.3523 144.339 54.4083 146.641C53.5803 148.636 54.0109 151.004 53.2408 153.025C52.5536 154.805 51.0383 156.072 49.9288 157.62C48.7984 159.376 48.1332 161.392 47.9956 163.476C47.858 165.56 48.2526 167.645 49.1422 169.535C50.0383 171.376 51.2998 173.016 52.85 174.354C54.4002 175.692 56.2067 176.701 58.1592 177.318C62.0269 178.495 66.1512 178.535 70.0411 177.434C72.9605 176.736 75.6838 175.386 78.0066 173.485C80.3832 171.544 82.0156 168.841 82.6268 165.834C83.2147 162.456 82.2708 159.019 81.567 155.658C79.3645 145.034 79.9938 144.479 82.7759 134.618C82.8421 134.444 82.8752 134.262 82.9249 134.088C82.9746 133.914 82.9994 133.831 83.0326 133.699C83.1116 133.309 83.1532 132.913 83.1568 132.515C82.7504 132.666 82.3094 132.698 81.8855 132.607C81.4616 132.516 81.0724 132.306 80.7638 132.001C80.4545 131.677 80.2388 131.274 80.1397 130.837C80.0406 130.4 80.0617 129.944 80.2008 129.517C80.3961 129.051 80.6872 128.631 81.0552 128.285C81.4232 127.938 81.8599 127.672 82.337 127.505C83.2561 127.124 84.2414 126.926 85.144 126.503C87.0567 125.593 88.3815 123.705 89.284 121.726C90.026 120.354 90.255 118.763 89.9299 117.238Z" fill="#263238"/>
<path d="M83.1153 131.885C83.2903 132.144 83.4348 132.422 83.5459 132.713C83.7943 133.235 84.1255 133.972 84.4898 134.825L84.5561 134.982H84.3822L83.5542 135.057C82.9829 135.057 82.5026 135.164 81.9396 135.156C81.8906 135.145 81.8451 135.122 81.8075 135.089C81.7698 135.055 81.7412 135.013 81.7243 134.966C81.6996 134.89 81.6996 134.809 81.7243 134.734C81.7435 134.622 81.7683 134.512 81.7988 134.403L81.9479 133.815C82.0228 133.423 82.1393 133.039 82.2956 132.672C82.2802 133.072 82.2219 133.469 82.1217 133.856L82.0058 134.444C81.9644 134.643 81.8899 134.949 82.0058 134.924C82.4198 134.924 83.0077 134.833 83.5542 134.8L84.3822 134.725L84.2746 134.908C83.9185 134.08 83.6204 133.301 83.4466 132.763C83.294 132.488 83.1824 132.193 83.1153 131.885Z" fill="#F37A20"/>
<path d="M54.7645 201.579L91.4866 200.461L107.467 262.843L104.528 334.4H85.1109L87.4873 264.367L73.287 220.938L75.4729 337.173L55.8491 337.463L53.7874 228.208C53.6963 225.169 52.7027 218.321 53.0753 215.307L54.7645 201.579Z" fill="#263238"/>
<path d="M78.1721 221.824C77.5711 221.861 76.9676 221.825 76.3754 221.716C75.2658 221.584 73.7506 221.352 72.0863 221.02C70.422 220.689 68.9316 220.308 67.8552 220.002C67.2798 219.876 66.7231 219.675 66.1992 219.406C66.1992 219.282 68.8985 219.928 72.2105 220.598C75.5225 221.269 78.1887 221.699 78.1721 221.824Z" fill="#455A64"/>
<path d="M104.329 330.475C104.329 330.591 99.9322 330.69 94.5088 330.69C89.0853 330.69 84.6803 330.591 84.6803 330.475C84.6803 330.359 89.0771 330.26 94.5088 330.26C99.9405 330.26 104.329 330.351 104.329 330.475Z" fill="#455A64"/>
<path d="M75.299 334.151C75.299 334.275 71.0265 334.366 65.7604 334.366C60.4943 334.366 56.23 334.275 56.23 334.151C56.23 334.027 60.5025 333.936 65.7604 333.936C71.0182 333.936 75.299 334.035 75.299 334.151Z" fill="#455A64"/>
<path d="M72.7653 333.853C72.6494 333.853 72.136 308.458 71.6144 277.135C71.0927 245.811 70.7864 220.4 70.894 220.4C71.0016 220.4 71.5316 245.786 72.0449 277.126C72.5583 308.466 72.8895 333.853 72.7653 333.853Z" fill="#455A64"/>
<path d="M101.721 330.475C101.712 330.362 101.712 330.248 101.721 330.135V329.142C101.721 328.248 101.787 326.964 101.837 325.333C101.953 322.021 102.118 317.21 102.325 311.315C102.772 299.458 103.402 283.113 104.089 265.071C104.089 264.897 104.089 264.731 104.089 264.582V264.64C99.7418 247.252 95.8087 231.47 92.9521 220.052L89.6401 206.547C89.2592 204.966 88.9694 203.732 88.7624 202.871C88.663 202.465 88.5968 202.15 88.5388 201.91C88.5066 201.802 88.4871 201.691 88.4809 201.579C88.5239 201.683 88.5571 201.791 88.5802 201.902C88.6465 202.134 88.7293 202.448 88.8452 202.846C89.0687 203.674 89.3917 204.932 89.8057 206.506C90.6337 209.702 91.8012 214.305 93.2585 219.977C96.1399 231.387 100.114 247.128 104.519 264.541V264.599C104.519 264.748 104.519 264.922 104.519 265.087C103.782 283.129 103.112 299.466 102.623 311.323C102.367 317.227 102.151 322.004 102.002 325.333C101.919 326.989 101.853 328.248 101.812 329.142C101.812 329.564 101.762 329.895 101.754 330.135C101.755 330.249 101.744 330.363 101.721 330.475Z" fill="#455A64"/>
<path d="M95.3865 263.125C93.9918 263.583 92.5551 263.902 91.0974 264.077C89.3089 264.383 87.7854 264.598 87.0981 264.632V264.466C87.3217 264.532 87.4376 264.574 87.4376 264.607C87.4376 264.64 87.2969 264.607 87.065 264.607H86.5682L87.065 264.458C87.7109 264.267 89.2344 263.953 91.0229 263.63C92.4573 263.319 93.9189 263.149 95.3865 263.125Z" fill="#455A64"/>
<path d="M95.047 265.501C93.7554 265.56 92.4612 265.502 91.1802 265.327C89.8868 265.301 88.5983 265.159 87.3299 264.905C89.9176 264.694 92.5224 264.895 95.047 265.501Z" fill="#455A64"/>
<path opacity="0.2" d="M54.6071 202.895C55.042 203.454 55.5897 203.914 56.2147 204.247C56.8396 204.579 57.5276 204.776 58.2337 204.825C59.7127 205 61.2087 204.972 62.6801 204.742C72.1608 203.69 82.2045 202.722 91.4865 200.461C79.4721 201.132 66.7788 200.908 54.7644 201.579L54.6402 202.606" fill="black"/>
<g opacity="0.2">
<path opacity="0.2" d="M66.9858 219.828L73.7589 246.109L73.2869 220.938L66.9858 219.828Z" fill="black"/>
</g>
</svg>
