<svg width="375" height="415" viewBox="0 0 375 415" fill="none" xmlns="http://www.w3.org/2000/svg">
<path d="M161.87 152.471C163.314 152.167 164.747 151.846 166.169 151.508C201.212 143.432 241.284 138.751 271.67 152.994C301.459 166.946 297.799 196.519 280.377 223.677C250.555 270.157 137.617 314.263 107.139 267.003C97.2873 251.731 114.269 224.839 102.051 206.836C88.1407 186.335 23.7659 199.3 36.6309 154.007C43.7606 128.891 62.0538 130.368 81.7082 138.519C92.9879 143.192 103.761 149.01 115.431 152.961C129.599 157.766 146.133 155.841 161.87 152.471Z" fill="#F37A20"/>
<path opacity="0.9" d="M161.87 152.471C163.314 152.167 164.747 151.846 166.169 151.508C201.212 143.432 241.284 138.751 271.67 152.994C301.459 166.946 297.799 196.519 280.377 223.677C250.555 270.157 137.617 314.263 107.139 267.003C97.2873 251.731 114.269 224.839 102.051 206.836C88.1407 186.335 23.7659 199.3 36.6309 154.007C43.7606 128.891 62.0538 130.368 81.7082 138.519C92.9879 143.192 103.761 149.01 115.431 152.961C129.599 157.766 146.133 155.841 161.87 152.471Z" fill="white"/>
<path d="M187.5 354.875C276.378 354.875 348.429 350.668 348.429 345.479C348.429 340.29 276.378 336.084 187.5 336.084C98.6215 336.084 26.5713 340.29 26.5713 345.479C26.5713 350.668 98.6215 354.875 187.5 354.875Z" fill="#F5F5F5"/>
<path d="M84.6713 281.113H191.277V336.15C191.277 336.855 191.138 337.553 190.868 338.205C190.598 338.857 190.202 339.449 189.704 339.947C189.205 340.446 188.613 340.841 187.961 341.111C187.31 341.381 186.612 341.52 185.906 341.52H90.0414C89.3362 341.52 88.6379 341.381 87.9864 341.111C87.3348 340.841 86.7428 340.446 86.2442 339.947C85.7455 339.449 85.35 338.857 85.0801 338.205C84.8102 337.553 84.6713 336.855 84.6713 336.15V281.113Z" fill="#F37A20"/>
<path d="M84.6713 281.113H160.11L150.831 269.235C149.81 267.932 147.286 266.878 145.187 266.878H77.3424C75.2508 266.878 74.371 267.932 75.3919 269.235L84.6713 281.113Z" fill="#F37A20"/>
<path opacity="0.2" d="M84.6713 281.113H160.11L150.831 269.235C149.81 267.932 147.286 266.878 145.187 266.878H77.3424C75.2508 266.878 74.371 267.932 75.3919 269.235L84.6713 281.113Z" fill="black"/>
<path d="M191.277 281.113H115.846L125.126 273.369C126.146 272.539 128.67 271.833 130.77 271.833H198.605C200.705 271.833 201.577 272.522 200.556 273.369L191.277 281.113Z" fill="#F37A20"/>
<path opacity="0.2" d="M115.846 281.113H191.277V336.15C191.277 336.855 191.138 337.553 190.868 338.205C190.598 338.857 190.202 339.449 189.704 339.947C189.205 340.446 188.613 340.841 187.961 341.111C187.31 341.381 186.612 341.52 185.906 341.52H121.216C120.511 341.52 119.813 341.381 119.161 341.111C118.51 340.841 117.918 340.446 117.419 339.947C116.92 339.449 116.525 338.857 116.255 338.205C115.985 337.553 115.846 336.855 115.846 336.15V281.113Z" fill="white"/>
<path opacity="0.5" d="M94.0337 281.113V318.861L96.6399 316.803L98.4742 318.861L100.068 316.57L101.703 318.861L103.977 317.143L106.484 318.861V281.113H94.0337Z" fill="white"/>
<path d="M110.908 198.768L97.5031 187.514" stroke="#F37A20" stroke-miterlimit="10"/>
<path d="M117.855 204.603L113.771 201.167" stroke="#F37A20" stroke-miterlimit="10"/>
<path d="M158.01 228.159L202.232 172.889L143.352 123.454L104.342 168.216L98.5323 179.413C98.2439 179.731 98.0241 180.105 97.8867 180.511C97.7494 180.918 97.6974 181.349 97.734 181.776C97.7706 182.204 97.895 182.619 98.0995 182.997C98.304 183.374 98.5841 183.705 98.9224 183.97L152.042 228.574C152.906 229.27 154.001 229.614 155.108 229.537C156.214 229.46 157.251 228.968 158.01 228.159Z" fill="#F37A20"/>
<path opacity="0.5" d="M127.682 187.397L121.316 197.648L123.881 198.204L124.752 200.578L126.453 200.677L127.242 202.711L129.325 203.317L130.927 205.865L137.293 195.614L127.682 187.397Z" fill="white"/>
<path opacity="0.1" d="M200.307 171.271L160.649 215.51L104.317 168.216L143.352 123.454L200.307 171.271Z" fill="black"/>
<path d="M200.307 171.271L160.649 215.51L177.067 216.721L216.11 171.959L200.307 171.271Z" fill="#F37A20"/>
<path opacity="0.3" d="M200.307 171.271L160.649 215.51L177.067 216.721L216.11 171.959L200.307 171.271Z" fill="black"/>
<path d="M127.557 122.757L87.8917 167.004L104.317 168.216L143.352 123.454L127.557 122.757Z" fill="#F37A20"/>
<path opacity="0.4" d="M127.557 122.757L87.8917 167.004L104.317 168.216L143.352 123.454L127.557 122.757Z" fill="black"/>
<path opacity="0.1" d="M188.098 184.891L200.307 171.271L143.352 123.454L136.065 141.017L188.098 184.891Z" fill="black"/>
<path opacity="0.2" d="M104.317 168.216L143.352 123.454L136.065 141.017L108.575 171.793L104.317 168.216Z" fill="black"/>
<path d="M214.06 87.98C214.218 88.5112 214.06 89.0341 213.711 89.1337C213.363 89.2333 212.956 88.8847 212.798 88.3535C212.641 87.8223 212.798 87.2994 213.147 87.1915C213.496 87.0836 213.911 87.4488 214.06 87.98Z" fill="#263238"/>
<path d="M214.118 89.0258C213.962 90.8521 213.554 92.648 212.906 94.3627C213.35 94.5166 213.822 94.5719 214.289 94.5246C214.757 94.4772 215.208 94.3285 215.612 94.0888L214.118 89.0258Z" fill="#ED847E"/>
<path d="M215.164 84.4359C215.234 84.3954 215.288 84.3304 215.313 84.2533C215.329 84.2131 215.336 84.1701 215.334 84.1269C215.333 84.0838 215.322 84.0415 215.304 84.0026C215.285 83.9637 215.259 83.9291 215.226 83.9008C215.193 83.8725 215.155 83.8513 215.114 83.8383C214.628 83.6519 214.104 83.5854 213.587 83.6447C213.069 83.7039 212.574 83.8871 212.143 84.1786C212.087 84.2355 212.053 84.3108 212.048 84.3906C212.043 84.4704 212.067 84.5493 212.115 84.6129C212.163 84.6765 212.233 84.7205 212.312 84.7367C212.39 84.753 212.471 84.7405 212.541 84.7015C212.886 84.4753 213.28 84.3348 213.69 84.2915C214.1 84.2481 214.514 84.3034 214.898 84.4525C214.941 84.4682 214.987 84.4748 215.033 84.472C215.079 84.4691 215.123 84.4568 215.164 84.4359Z" fill="#263238"/>
<path d="M232.519 91.5324C232.884 95.9314 233.972 103.982 236.57 105.842C236.57 105.842 235.955 111.129 226.61 112.482C216.367 113.992 220.966 108.116 220.966 108.116C226.352 105.958 225.597 101.833 224.053 98.0811L228.004 93.5493C229.523 91.8727 232.32 89.2831 232.519 91.5324Z" fill="#FFC3BD"/>
<path d="M239.915 107.991C240.745 107.236 239.085 104.215 238.064 103.791C235.391 102.671 224.46 103.791 220.351 107.319C220.011 107.903 219.805 108.555 219.749 109.229C219.693 109.902 219.788 110.58 220.028 111.212L239.915 107.991Z" fill="white"/>
<path d="M274.725 329.85C274.455 329.973 274.163 330.041 273.867 330.05C273.57 330.058 273.275 330.007 272.998 329.9C272.889 329.814 272.809 329.696 272.769 329.562C272.729 329.428 272.731 329.286 272.774 329.153C272.796 329.045 272.842 328.942 272.908 328.853C272.974 328.764 273.059 328.691 273.156 328.639C274.052 328.116 276.269 328.805 276.36 328.838C276.39 328.846 276.418 328.863 276.438 328.886C276.459 328.91 276.472 328.939 276.476 328.971C276.48 329.003 276.475 329.037 276.46 329.066C276.445 329.096 276.422 329.12 276.393 329.137C275.863 329.43 275.304 329.67 274.725 329.85ZM273.513 328.838L273.322 328.921C273.265 328.951 273.216 328.994 273.177 329.046C273.139 329.097 273.112 329.157 273.098 329.22C273.04 329.518 273.156 329.61 273.189 329.635C273.588 329.917 274.941 329.51 275.878 329.037C275.114 328.797 274.306 328.729 273.513 328.838Z" fill="#F37A20"/>
<path d="M276.36 329.145C276.333 329.153 276.304 329.153 276.277 329.145C275.447 328.979 273.712 327.941 273.621 327.161C273.608 327.038 273.638 326.915 273.706 326.812C273.774 326.709 273.876 326.633 273.994 326.597C274.109 326.545 274.234 326.519 274.36 326.519C274.485 326.519 274.61 326.545 274.725 326.597C275.688 326.995 276.435 328.854 276.459 328.929C276.476 328.954 276.485 328.982 276.485 329.012C276.485 329.042 276.476 329.07 276.459 329.095C276.448 329.11 276.433 329.123 276.415 329.132C276.398 329.14 276.379 329.145 276.36 329.145ZM274.202 326.879C274.177 326.872 274.151 326.872 274.127 326.879C273.936 326.962 273.945 327.061 273.953 327.103C274.003 327.568 275.181 328.406 276.02 328.713C275.771 328.174 275.19 327.128 274.6 326.879C274.472 326.83 274.33 326.83 274.202 326.879Z" fill="#F37A20"/>
<path d="M226.078 338.764C225.19 338.764 224.335 338.64 224.045 338.242C223.971 338.137 223.931 338.013 223.931 337.885C223.931 337.757 223.971 337.632 224.045 337.528C224.1 337.432 224.174 337.348 224.263 337.281C224.351 337.214 224.452 337.165 224.56 337.138C225.713 336.831 228.137 338.208 228.236 338.266C228.267 338.281 228.292 338.306 228.308 338.336C228.324 338.366 228.329 338.401 228.324 338.435C228.318 338.468 228.302 338.499 228.277 338.523C228.252 338.546 228.221 338.561 228.187 338.565C227.491 338.695 226.786 338.762 226.078 338.764ZM224.983 337.42C224.876 337.416 224.769 337.43 224.667 337.461C224.534 337.491 224.418 337.572 224.344 337.686C224.228 337.893 224.269 337.993 224.344 338.051C224.667 338.499 226.419 338.507 227.664 338.325C226.837 337.853 225.926 337.546 224.983 337.42Z" fill="#F37A20"/>
<path d="M228.17 338.574H228.104C227.274 338.2 225.614 336.698 225.738 335.918C225.738 335.735 225.904 335.503 226.352 335.461C226.514 335.443 226.679 335.459 226.834 335.507C226.99 335.556 227.134 335.636 227.257 335.743C228.145 336.465 228.328 338.333 228.336 338.408C228.341 338.436 228.337 338.466 228.325 338.492C228.313 338.519 228.294 338.541 228.27 338.557C228.239 338.573 228.204 338.579 228.17 338.574ZM226.51 335.768H226.41C226.112 335.768 226.095 335.918 226.087 335.951C226.012 336.424 227.141 337.611 227.987 338.117C227.915 337.325 227.596 336.576 227.074 335.976C226.919 335.838 226.717 335.764 226.51 335.768Z" fill="#F37A20"/>
<path d="M235.789 338.408H228.859L228.17 322.372H235.1L235.789 338.408Z" fill="#FFC3BD"/>
<path d="M284.469 327.46L278.086 329.659L271.463 314.545L277.845 312.346L284.469 327.46Z" fill="#FFC3BD"/>
<path d="M276.567 328.074L284.037 325.792C284.169 325.751 284.311 325.757 284.44 325.808C284.568 325.86 284.675 325.953 284.743 326.074L287.855 331.552C287.93 331.686 287.974 331.835 287.983 331.988C287.992 332.141 287.966 332.294 287.908 332.436C287.85 332.578 287.761 332.705 287.647 332.808C287.532 332.911 287.397 332.986 287.249 333.029C284.635 333.784 283.332 334.017 280.062 335.021C278.045 335.635 272.965 337.561 270.102 338.134C267.238 338.706 266.317 335.967 267.429 335.478C272.409 333.278 274.451 330.78 275.638 328.838C275.845 328.479 276.175 328.208 276.567 328.074Z" fill="#263238"/>
<path d="M228.909 337.603H236.47C236.607 337.604 236.739 337.652 236.846 337.738C236.953 337.823 237.028 337.942 237.059 338.076L238.429 344.234C238.463 344.383 238.463 344.537 238.428 344.686C238.394 344.834 238.326 344.973 238.23 345.091C238.134 345.209 238.012 345.304 237.874 345.369C237.736 345.433 237.585 345.465 237.433 345.463C234.702 345.421 230.793 345.255 227.332 345.255C223.323 345.255 221.638 345.479 216.932 345.479C214.093 345.479 213.305 342.607 214.492 342.342C219.912 341.155 222.559 341.03 227.24 338.142C227.737 337.813 228.314 337.627 228.909 337.603Z" fill="#263238"/>
<path d="M249.036 110.257C251.053 112.108 252.796 113.959 254.605 115.893C256.415 117.827 258.091 119.827 259.718 121.96C261.417 124.127 262.959 126.413 264.333 128.799C265.084 130.115 265.733 131.486 266.275 132.9C266.416 133.29 266.557 133.663 266.674 134.087C266.81 134.515 266.923 134.95 267.014 135.39L267.155 136.079L267.255 136.842C267.348 137.542 267.348 138.251 267.255 138.95C267.064 140.271 266.576 141.531 265.827 142.636C265.281 143.442 264.64 144.18 263.918 144.835C262.758 145.888 261.489 146.814 260.133 147.599C257.745 148.965 255.246 150.128 252.663 151.077C247.764 152.895 242.715 154.284 237.574 155.227L236.121 150.247C240.628 148.296 245.193 146.188 249.401 143.939C251.45 142.864 253.422 141.649 255.303 140.303C256.086 139.747 256.807 139.106 257.452 138.394C257.648 138.184 257.813 137.946 257.942 137.689C258.008 137.548 257.942 137.564 257.859 137.863C257.801 138.419 257.809 137.988 257.676 137.689C257.635 137.548 257.56 137.357 257.486 137.174C257.411 136.992 257.32 136.784 257.228 136.585C256.779 135.68 256.277 134.801 255.726 133.954C254.444 132.05 253.059 130.219 251.576 128.467C250.049 126.658 248.439 124.857 246.787 123.089C245.135 121.321 243.4 119.537 241.807 117.893L249.036 110.257Z" fill="#FFC3BD"/>
<path d="M238.022 149.458L231.49 151.434L235.69 158.339C235.69 158.339 239.549 156.746 240.404 153.467L238.022 149.458Z" fill="#FFC3BD"/>
<path d="M228.851 153.882L231.424 159.576L235.648 158.347L231.449 151.433L228.851 153.882Z" fill="#FFC3BD"/>
<path d="M233.731 112.133C233.109 118.773 247.152 129.048 247.152 129.048L260.673 119.794C258.325 115.464 254.893 111.817 250.713 109.211C242.961 104.248 234.511 103.883 233.731 112.133Z" fill="#F37A20"/>
<g opacity="0.3">
<path opacity="0.3" d="M233.731 112.133C233.109 118.773 247.152 129.048 247.152 129.048L260.673 119.794C258.325 115.464 254.893 111.817 250.713 109.211C242.961 104.248 234.511 103.883 233.731 112.133Z" fill="white"/>
</g>
<path d="M210.74 111.602C210.74 111.602 204.673 120.914 219.082 170.864L255.718 165.452C255.203 160.389 249.078 138.303 248.87 114.158C248.862 112.992 248.617 111.84 248.151 110.771C247.685 109.702 247.007 108.739 246.159 107.939C245.31 107.14 244.308 106.52 243.214 106.118C242.119 105.716 240.954 105.54 239.79 105.601C238.728 105.659 237.632 105.734 236.545 105.842C231.315 106.308 226.116 107.076 220.974 108.141C217.479 109.03 214.057 110.187 210.74 111.602Z" fill="#F37A20"/>
<g opacity="0.3">
<path opacity="0.3" d="M210.74 111.602C210.74 111.602 204.673 120.914 219.082 170.864L255.718 165.452C255.203 160.389 249.078 138.303 248.87 114.158C248.862 112.992 248.617 111.84 248.151 110.771C247.685 109.702 247.007 108.739 246.159 107.939C245.31 107.14 244.308 106.52 243.214 106.118C242.119 105.716 240.954 105.54 239.79 105.601C238.728 105.659 237.632 105.734 236.545 105.842C231.315 106.308 226.116 107.076 220.974 108.141C217.479 109.03 214.057 110.187 210.74 111.602Z" fill="white"/>
</g>
<path opacity="0.2" d="M209.844 127.654L209.968 127.513L218.584 128.276C219.895 133.837 215.098 141.424 212.566 144.943C211.347 139.233 210.439 133.462 209.844 127.654Z" fill="black"/>
<path opacity="0.2" d="M228.17 322.38L228.527 330.647H235.457L235.101 322.38H228.17Z" fill="black"/>
<path opacity="0.2" d="M277.845 312.346L271.463 314.545L274.882 322.339L281.265 320.139L277.845 312.346Z" fill="black"/>
<path d="M231.614 81.6056C233.142 88.3037 234.37 92.1466 232.038 96.5456C228.535 103.094 219.521 102.463 216.027 96.3547C212.881 90.8518 210.906 80.8254 216.583 76.3102C217.827 75.3113 219.306 74.6462 220.879 74.378C222.451 74.1098 224.067 74.2473 225.572 74.7775C227.076 75.3076 228.421 76.2129 229.479 77.4078C230.536 78.6026 231.271 80.0474 231.614 81.6056Z" fill="#FFC3BD"/>
<path d="M218.16 88.1709L215.612 89.7313L215.853 81.0163C214.21 81.0868 212.589 80.6175 211.238 79.68C212.159 78.8002 226.502 73.7787 230.975 74.6502C231.44 74.4593 232.005 73.5961 232.005 73.5961C232.005 73.5961 232.179 74.6834 231.424 75.0984C231.971 74.9905 233.341 75.2561 233.723 76.0612C233.094 75.8896 232.427 75.9274 231.822 76.1691C231.822 76.1691 236.802 76.9244 235.034 83.83C233.05 91.4411 233.706 95.8152 233.706 95.8152C233.706 95.8152 230.004 98.6787 226.784 98.1475C223.348 94.3627 218.384 89.8143 218.16 88.1709Z" fill="#263238"/>
<path d="M213.28 78.9911C209.238 78.9911 207.785 77.0157 206.748 75.3557C209.653 75.0486 215.703 73.1811 220.194 72.8657C224.684 72.5503 229.606 73.3886 228.12 75.3557C226.635 77.3228 213.28 78.9911 213.28 78.9911Z" fill="#263238"/>
<path d="M214.168 77.19C210.848 76.7252 207.611 73.5961 210.101 70.5998C211.022 72.7993 217.239 72.542 221.655 71.6207C227.464 70.4089 231.49 72.3677 229.432 76.3268C228.303 78.4931 214.168 77.19 214.168 77.19Z" fill="#263238"/>
<path d="M221.746 86.1872C222.221 87.8261 222.145 89.5756 221.53 91.1672C220.7 93.2505 218.857 92.8272 217.895 91.0261C217.065 89.3661 216.434 86.3532 217.845 84.8509C219.256 83.3486 221.148 84.2201 221.746 86.1872Z" fill="#FFC3BD"/>
<path d="M232.079 168.947C232.079 168.947 238.022 219.535 242.338 239.355C247.061 261.068 270.359 320.264 270.359 320.264L281.979 316.247C281.979 316.247 267.039 271.676 263.072 241.323C260.025 218.016 255.685 165.452 255.685 165.452L232.079 168.947Z" fill="#263238"/>
<path d="M267.387 316.545C267.329 316.545 269.77 321.525 269.77 321.525L283.34 317.118L281.746 313.068L267.387 316.545Z" fill="#F37A20"/>
<path opacity="0.3" d="M235.358 194.901C237.217 208.961 239.599 225.611 241.691 236.243C244.77 219.95 245.492 199.374 235.358 194.901Z" fill="black"/>
<path d="M219.081 170.864C219.081 170.864 214.151 218.39 214.931 239.505C215.712 261.467 225.971 329.045 225.971 329.045H237.698C237.698 329.045 235.54 262.745 236.038 241.181C236.611 217.667 245.426 166.971 245.426 166.971L219.081 170.864Z" fill="#263238"/>
<path d="M223.688 324.372C223.638 324.372 224.352 329.236 224.352 329.236H238.62L239.01 324.895L223.688 324.372Z" fill="#F37A20"/>
<path d="M216.807 123.272C215.513 125.33 214.201 127.181 212.84 129.082C211.479 130.982 210.051 132.817 208.599 134.643C205.638 138.347 202.429 141.846 198.996 145.117C198.066 145.947 197.211 146.777 196.207 147.532L195.476 148.122L195.111 148.412C194.978 148.52 194.92 148.578 194.646 148.777C193.824 149.364 192.921 149.828 191.965 150.155C190.486 150.661 188.938 150.94 187.376 150.985C186.053 151.03 184.73 150.971 183.416 150.811C178.616 150.182 173.932 148.856 169.514 146.877L170.95 141.897C175.196 142.401 179.473 142.606 183.748 142.511C184.694 142.461 185.636 142.359 186.57 142.204C187.274 142.101 187.958 141.888 188.596 141.573C188.795 141.465 188.903 141.357 188.878 141.332C188.853 141.307 188.986 141.224 189.06 141.15L189.343 140.892L189.899 140.37C190.646 139.706 191.351 138.9 192.082 138.17C193.518 136.626 194.945 135.041 196.298 133.356C197.651 131.671 199.02 129.978 200.348 128.235C201.676 126.492 202.963 124.724 204.258 122.956C205.553 121.188 206.814 119.329 208.009 117.611L216.807 123.272Z" fill="#FFC3BD"/>
<path d="M221.63 121.072C224.418 130.202 208.225 140.32 208.225 140.32L197.701 126.915C200.073 122.495 203.002 118.398 206.416 114.723C213.579 106.929 219.505 114.125 221.63 121.072Z" fill="#F37A20"/>
<g opacity="0.3">
<path opacity="0.3" d="M221.63 121.072C224.418 130.202 208.225 140.32 208.225 140.32L197.701 126.915C200.073 122.495 203.002 118.398 206.416 114.723C213.579 106.929 219.505 114.125 221.63 121.072Z" fill="white"/>
</g>
<path d="M173.39 142.204L164.866 140.643L165.762 148.014C165.762 148.014 170.195 150.504 173.407 146.611L173.39 142.204Z" fill="#FFC3BD"/>
<path d="M161.579 142.303L163.422 147.624L165.746 148.014L164.849 140.643L161.579 142.303Z" fill="#FFC3BD"/>
</svg>
